P1
51 51
101111111111111111111111111111111111111111111111111
101000000000001000000000001000000000000000001000001
101111111010101110111110111010111111111111111011101
100000001010100010001000100010100000001000000010001
111111101110111011101110101110101111101011111110101
100000100000101000100010101010001000100010000010101
101111111111101110111011101011111011111110111110101
101000100000000010100010001000001000000000100000101
101010101111111010101110111110101111101111101111101
100010100000101000100010100000100000100010001000001
101110111110101111101010111011111110101010111111111
101000100010001000001000100010001000101010000000001
101011101011101110111111101110111011111011111111101
101000101000100010000000001000000000001000000010001
101110101110111011111111101111111111101011111010111
101000101010001000001000101000001000001010000010001
101011101011101111101010101011101111101110101111101
101000001000101000001010101000100000100000101000001
101111111010101011111010101110111110111111111011101
101010000010100010000010100010001000100000000010001
101010111110111110111110111011101011101111111011111
101000000010100010100000100000101000001000100010001
101110111110101010101111101111101011111010111110101
100010100010001000100000001000101010000010001000101
111010101011111111111110111010101010111111101011101
100010101000100010000010101010001010001000101010001
101111101110101010111010101011101111101010101010111
100000001010001000100010101000101000001010100010001
111111111011111111101110101110111011111010101111101
100000000010000000100010000010000010000010101000001
111011111010111110111011111011111110111110101011101
100010100000100010100010001000100010100000101010001
101110101111101011101110101110101010111011111010111
100010000010001000001000100000101010001000100010101
111011111110111111111111101111111011101110101110101
100010000010100000000000100010000010101000100010001
101110111010101111101110111010111010101011111011111
100010101000100010101010101010100000101000001010001
101010101111111010101010101010111111101111101010101
101010001000001000101000100000100000001010001000101
101011101010101110101011111111101111111010111111101
101000101010101000101010000000001000000010000000001
101011101010111011101010111111111011111011111111101
101010001010000010101010001000001010001000100000101
111010111110111110101011101010111010101110101110101
100010000010000000101000101010001000101000100010001
101111111010111111101110101011101111101010111011111
101000000010100000001010001000100000101010001000101
101011111111101111111011111110111011101011111110101
100000000000001000000000000000001000001000000000001
111111111111111111111111111111111111111111111111101
