P1
41 41
10111111111111111111111111111111111111111
10001010001000000000001000000000001000001
11101010101010111111101111101111101111101
10101000100010000000100000100010101000001
10101110111111111110111110111010101011101
10100010101000000000100010000010001010001
10111010101011111111111011111110111010111
10100010001010001000000000101000100010101
10101111111010111010111110101011111010101
10101000000010000010100000001010000010101
10101110111111101110111111101010111110101
10100000100000101010100000101010100010001
10111111101110101010101110101010101111101
10100000001010100010001000101000100000101
10101110111010111111101011111111101110101
10101010100010001000101010000010001010001
10101010101111101010111010101110111011111
10101010100000100010000010100010001000001
10101010101110101111111110111011101110111
10001010100010001000100000100010100010001
10111010101111111010101111101010111010101
10100010101000000010001000101000001010101
10101010111011111111111010101111101011101
10101010000010000000000010101010001000101
10101011111110101111111110101010111110101
10101000000000100010001000101000000010001
10101111111111111010101011101111111011101
10101000000000001010100000100010000010001
10111011111111101010111111111010111110111
10001010001000101010100000000010000010001
11101010101110101010101111111111111011101
10001000100010100010101000000000000000101
10111011111010111110101111111011111111101
10001010000010000010100000001010001000001
11101010111110101110111111101110101011111
10101010000010100010001000100000100010001
10101110111010111011101110111111111111101
10100010100010001000001000100000000000101
10111011101111101111111010101111111110101
10000000001000000000000010001000000000001
11111111111111111111111111111111111111101
